<svg xmlns="http://www.w3.org/2000/svg" xmlns:xlink="http://www.w3.org/1999/xlink" width="820" zoomAndPan="magnify" viewBox="0 0 615 644.249985" height="859" preserveAspectRatio="xMidYMid meet" version="1.0"><defs><clipPath id="id1"><path d="M 18.464844 32.777344 L 596.207031 32.777344 L 596.207031 332.675781 L 18.464844 332.675781 Z M 18.464844 32.777344 " clip-rule="nonzero"/></clipPath><clipPath id="id2"><path d="M 18.464844 319.191406 L 596.207031 319.191406 L 596.207031 610.355469 L 18.464844 610.355469 Z M 18.464844 319.191406 " clip-rule="nonzero"/></clipPath></defs><path fill="#ffffff" d="M 589.722656 321.574219 C 589.722656 165.625 463.292969 39.203125 307.335938 39.203125 C 151.375 39.203125 24.945312 165.625 24.945312 321.574219 C 24.945312 323.019531 24.960938 324.453125 24.984375 325.886719 L 589.6875 325.886719 C 589.707031 324.453125 589.722656 323.019531 589.722656 321.574219 " fill-opacity="1" fill-rule="nonzero"/><g clip-path="url(#id1)"><path fill="#000000" d="M 31.375 319.464844 L 583.292969 319.464844 C 582.152344 168.273438 458.796875 45.625 307.335938 45.625 C 155.875 45.625 32.515625 168.273438 31.375 319.464844 Z M 596.015625 332.308594 L 18.65625 332.308594 L 18.5625 325.984375 C 18.539062 324.519531 18.523438 323.046875 18.523438 321.574219 C 18.523438 282.59375 26.164062 244.769531 41.222656 209.160156 C 55.769531 174.769531 76.59375 143.886719 103.113281 117.363281 C 129.636719 90.84375 160.523438 70.019531 194.914062 55.476562 C 230.523438 40.414062 268.347656 32.78125 307.335938 32.78125 C 346.320312 32.78125 384.144531 40.414062 419.753906 55.476562 C 454.144531 70.019531 485.03125 90.84375 511.554688 117.363281 C 538.074219 143.886719 558.898438 174.769531 573.445312 209.160156 C 588.507812 244.769531 596.144531 282.59375 596.144531 321.574219 C 596.144531 323.046875 596.128906 324.519531 596.109375 325.984375 L 596.015625 332.308594 " fill-opacity="1" fill-rule="nonzero"/></g><path fill="#ffffff" d="M 24.984375 325.886719 C 27.285156 479.851562 152.816406 603.953125 307.335938 603.953125 C 461.851562 603.953125 587.382812 479.851562 589.6875 325.886719 L 24.984375 325.886719 " fill-opacity="1" fill-rule="nonzero"/><g clip-path="url(#id2)"><path fill="#000000" d="M 31.578125 332.308594 C 37.25 479.152344 159.605469 597.53125 307.335938 597.53125 C 455.0625 597.53125 577.421875 479.152344 583.09375 332.308594 Z M 307.335938 610.375 C 268.707031 610.375 231.207031 602.875 195.875 588.082031 C 161.75 573.792969 131.03125 553.320312 104.570312 527.230469 C 78.125 501.15625 57.230469 470.75 42.457031 436.855469 C 27.179688 401.796875 19.136719 364.496094 18.5625 325.984375 L 18.464844 319.464844 L 596.207031 319.464844 L 596.109375 325.984375 C 595.53125 364.496094 587.492188 401.796875 572.210938 436.855469 C 557.441406 470.75 536.542969 501.15625 510.097656 527.230469 C 483.640625 553.320312 452.917969 573.792969 418.792969 588.082031 C 383.464844 602.875 345.960938 610.375 307.335938 610.375 " fill-opacity="1" fill-rule="nonzero"/></g><path fill="#020202" d="M 388.894531 321.574219 C 388.894531 366.617188 352.378906 403.132812 307.335938 403.132812 C 262.289062 403.132812 225.773438 366.617188 225.773438 321.574219 C 225.773438 276.53125 262.289062 240.019531 307.335938 240.019531 C 352.378906 240.019531 388.894531 276.53125 388.894531 321.574219 " fill-opacity="1" fill-rule="nonzero"/><path fill="#000000" d="M 307.335938 244.835938 C 265.019531 244.835938 230.589844 279.261719 230.589844 321.574219 C 230.589844 363.890625 265.019531 398.316406 307.335938 398.316406 C 349.652344 398.316406 384.078125 363.890625 384.078125 321.574219 C 384.078125 279.261719 349.652344 244.835938 307.335938 244.835938 Z M 307.335938 407.949219 C 259.707031 407.949219 220.957031 369.203125 220.957031 321.574219 C 220.957031 273.953125 259.707031 235.203125 307.335938 235.203125 C 354.960938 235.203125 393.710938 273.953125 393.710938 321.574219 C 393.710938 369.203125 354.960938 407.949219 307.335938 407.949219 " fill-opacity="1" fill-rule="nonzero"/><path fill="#ffffff" d="M 371.554688 321.574219 C 371.554688 357.042969 342.804688 385.792969 307.335938 385.792969 C 271.867188 385.792969 243.113281 357.042969 243.113281 321.574219 C 243.113281 286.109375 271.867188 257.359375 307.335938 257.359375 C 342.804688 257.359375 371.554688 286.109375 371.554688 321.574219 " fill-opacity="1" fill-rule="nonzero"/><path fill="#000000" d="M 307.335938 262.175781 C 274.578125 262.175781 247.929688 288.820312 247.929688 321.574219 C 247.929688 354.332031 274.578125 380.976562 307.335938 380.976562 C 340.089844 380.976562 366.738281 354.332031 366.738281 321.574219 C 366.738281 288.820312 340.089844 262.175781 307.335938 262.175781 Z M 307.335938 390.609375 C 269.269531 390.609375 238.296875 359.640625 238.296875 321.574219 C 238.296875 283.511719 269.269531 252.542969 307.335938 252.542969 C 345.402344 252.542969 376.371094 283.511719 376.371094 321.574219 C 376.371094 359.640625 345.402344 390.609375 307.335938 390.609375 " fill-opacity="1" fill-rule="nonzero"/><path fill="#ff0606" d="M 307.335938 403.960938 C 263.738281 403.960938 228.128906 369.75 225.886719 326.714844 L 24.984375 326.714844 C 27.285156 480.679688 152.816406 604.777344 307.335938 604.777344 C 461.851562 604.777344 587.382812 480.679688 589.6875 326.714844 L 388.78125 326.714844 C 386.539062 369.75 350.929688 403.960938 307.335938 403.960938 " fill-opacity="1" fill-rule="nonzero"/><path fill="#000000" d="M 29.914062 331.53125 C 34.761719 479.984375 158.195312 599.960938 307.335938 599.960938 C 456.472656 599.960938 579.90625 479.984375 584.753906 331.53125 L 393.234375 331.53125 C 388.660156 375.199219 351.773438 408.777344 307.335938 408.777344 C 262.894531 408.777344 226.011719 375.199219 221.4375 331.53125 Z M 307.335938 609.59375 C 268.921875 609.59375 231.628906 602.136719 196.492188 587.421875 C 162.558594 573.21875 132.011719 552.855469 105.695312 526.914062 C 79.402344 500.984375 58.621094 470.746094 43.929688 437.039062 C 28.734375 402.175781 20.738281 365.082031 20.167969 326.785156 L 20.09375 321.898438 L 230.460938 321.898438 L 230.699219 326.464844 C 232.820312 367.21875 266.484375 399.144531 307.335938 399.144531 C 348.183594 399.144531 381.847656 367.21875 383.972656 326.464844 L 384.210938 321.898438 L 594.578125 321.898438 L 594.503906 326.785156 C 593.929688 365.082031 585.933594 402.175781 570.742188 437.039062 C 556.050781 470.746094 535.269531 500.984375 508.972656 526.914062 C 482.660156 552.855469 452.109375 573.21875 418.175781 587.421875 C 383.039062 602.136719 345.75 609.59375 307.335938 609.59375 " fill-opacity="1" fill-rule="nonzero"/></svg>